PathFileType	4	(X/Y/Z)	Patient4_TMGait_0pt7_02_right_45.trc.trc
DataRate	CameraRate	NumFrames	NumMarkers	Units	OrigDataRate	OrigDataStartFrame	OrigNumFrames
90.322580645161	90.322580645161	4	33	mm	90.322580645161	53	       141
Frame#	Time	Sacral			L.Shoulder			Chest			R.Shoulder			Neck			R.ASIS			L.ASIS			R.Thigh.Superior			R.Thigh.Lateral			R.Thigh.Inferior			R.Patella			L.Thigh.Superior			L.Thigh.Lateral			L.Thigh.Inferior			L.Patella			L.Shank.Superior			L.Shank.Lateral			L.Shank.Inferior			R.Shank.Superior			R.Shank.Lateral			R.Shank.Inferior			R.Heel			R.Midfoot.Superior			R.Midfoot.Lateral			R.Toe			L.Heel			L.Midfoot.Lateral			L.Midfoot.Superior			L.Toe			L.Elbow			L.Wrist			R.Elbow			R.Wrist			
		X1	Y1	Z1	X2	Y2	Z2	X3	Y3	Z3	X4	Y4	Z4	X5	Y5	Z5	X6	Y6	Z6	X7	Y7	Z7	X8	Y8	Z8	X9	Y9	Z9	X10	Y10	Z10	X11	Y11	Z11	X12	Y12	Z12	X13	Y13	Z13	X14	Y14	Z14	X15	Y15	Z15	X16	Y16	Z16	X17	Y17	Z17	X18	Y18	Z18	X19	Y19	Z19	X20	Y20	Z20	X21	Y21	Z21	X22	Y22	Z22	X23	Y23	Z23	X24	Y24	Z24	X25	Y25	Z25	X26	Y26	Z26	X27	Y27	Z27	X28	Y28	Z28	X29	Y29	Z29	X30	Y30	Z30	X31	Y31	Z31	X32	Y32	Z32	X33	Y33	Z33	

53	51.545714285714	721.692295622303	1014.005588617139	512.182423328383	900.203751819177	1426.511549518754	301.970495845425	1019.308810401970	1354.104277186888	452.062177079910	962.860849353002	1438.977389639036	631.544191483437	922.822178312558	1490.582037997507	453.407196630595	951.320286075227	943.453895392765	620.055862931811	922.838372024549	956.381975093652	346.840477792424	978.039290402775	737.815620199004	594.007511149671	890.080893129187	634.914097029632	654.518764348831	961.685453787233	577.902610832262	573.290667362425	955.905567512644	492.027096800020	578.341872697490	1022.587294120303	806.912624175836	388.660665863875	1010.628798834035	679.601060243894	300.403412340146	1120.917378070966	633.345717609533	370.393815412601	1149.546857298073	543.011296233046	359.496269372013	1084.868455596896	469.207586619416	350.081726526302	943.861877596946	424.177671295002	301.398541456778	934.881091513195	294.389951162718	354.156813644277	928.073978571563	404.456589293743	586.132422668230	855.753013778281	300.860474351807	646.684071947428	897.767086086481	206.153728039845	582.306140246378	764.453037453825	41.804372370602	548.862191823602	934.698989027807	97.522477320678	589.060395302413	846.152897344821	36.120655336553	624.751305040280	1054.343243314572	46.154171706750	618.289793084000	747.276621003527	225.940305768609	392.158997639481	804.701746445375	182.721602637948	310.583904431724	909.493626537544	190.973082252650	331.506248100233	987.772093685218	80.709448610792	300.165298853177	828.859950286671	1072.336633657738	220.685040801953	975.238677788812	856.947889646241	229.686334357406	948.859987068285	1094.890112266676	769.990193477737	1079.771868084128	868.540745029506	745.337572035164	
54	51.556785714286	720.971206169907	1014.396250876935	513.529115472292	898.748199371166	1426.176273877509	302.237869387922	1018.921435533854	1353.814662908343	451.457100803586	964.092802373716	1438.829977582709	631.397492157710	922.642216606344	1490.436024771011	453.542846836233	951.009836589948	943.171188153406	619.812257478811	920.843131943621	956.496557768632	346.779360539712	975.144369279306	736.996462926021	593.346050290196	886.444227702675	634.851780343317	654.799701602965	956.711427771231	577.021810978073	573.243840476958	949.969235787809	491.486205833647	578.380419585041	1022.104710718524	810.608847338296	389.492743574446	1013.681365554021	683.624698596121	300.080606446057	1124.519869493827	639.506498362206	370.380837705748	1155.596126589453	550.054916798200	358.945105301385	1093.423573468716	474.359676968589	349.432433840962	953.976491536090	424.016249809167	301.319737445416	950.423971244516	293.749035865204	353.773528854187	921.812856313340	404.113405137333	586.142267488404	849.255083010350	300.797498968042	646.909938583876	890.595233490285	205.942046578838	582.310804903213	756.683931508996	41.835128489624	548.913817850132	926.928099966988	97.395498025826	589.055019839300	838.373579666744	36.144084903942	624.842501833259	1046.578770046492	45.873725495067	618.321407471353	765.839806895494	217.491285404615	392.587492534448	824.564085346026	177.002568153646	310.485501652081	929.141077436504	189.614476648545	330.861347919863	1011.900037222660	82.815911175043	298.563582949422	824.990856319586	1071.672511156646	223.733642989577	950.651487884478	843.279119998414	231.173728851508	958.460210853533	1094.945077545827	770.672203967790	1103.038512594047	877.958824068685	740.925620373785	
55	51.567857142857	720.315743601840	1014.678039201226	514.719037973806	897.535315665500	1425.716035313981	302.386510372626	1018.635392101869	1353.417865294840	450.839836223684	965.276439067956	1438.595642302392	631.175735279038	922.557519471060	1490.190865529187	453.572788501567	950.728963665837	942.820747148176	619.488859127819	919.080781487359	956.557242218415	346.587491529014	972.346405347609	736.153217940216	592.699093783336	882.822237388045	634.766423393281	655.039451093579	951.788750327413	576.130106958931	573.230852091684	944.091803668300	490.930636568354	578.446330881297	1021.454021459550	813.820725607280	390.045242031586	1016.154453525002	687.183266411673	299.634148504674	1127.490550808301	645.074484822398	370.098654830175	1160.851563452576	556.599115627451	358.186000483940	1101.380573058658	479.105299196686	348.613593423048	963.867233097154	423.191141943935	300.995601307014	966.028477197789	292.647855906894	353.174316448724	915.564894614164	403.755566194755	586.143953349403	842.768235065276	300.737552441077	647.127923801921	883.428497290200	205.736631886135	582.328850373057	748.914390780899	41.882942823251	548.965726253880	919.172109065481	97.276676281222	589.056236061202	830.595112300240	36.175241839843	624.951117513791	1038.819500414671	45.575805822406	618.351460251070	784.959703954728	208.375923062830	392.707349162494	844.972708996363	170.740560855599	310.137655825382	949.099867251575	187.860719891916	330.053215243478	1036.371177084521	84.793225704389	296.887613558976	821.272686412384	1071.068941206594	226.284368946567	925.515399697673	831.927978218216	232.687625151197	967.867884701573	1095.150722408106	771.082440225213	1125.861591806754	888.950983377889	735.868784866655	
56	51.578928571429	719.741805991812	1014.852299004154	515.730714602351	896.594071850920	1425.144868288549	302.404910509036	1018.465821653818	1352.917765257902	450.208965419827	966.411962056526	1438.287083624824	630.873855356694	922.588685291892	1489.853253806948	453.486685629709	950.478345750350	942.428728811565	619.127655368171	917.551988114833	956.511808886410	346.308428913050	969.655238385623	735.288262525582	592.118621403195	879.200673684237	634.665956274219	655.244721366993	946.928405296086	575.231178002596	573.276169670399	938.282463529915	490.359354362755	578.545907719054	1020.676856100373	816.505512508286	390.332129485262	1018.039642553564	690.202706897649	299.084184160321	1129.834810000188	649.949704622198	369.544525640059	1165.288611580446	562.529645590502	357.232578183870	1108.694337485940	483.364769372462	347.658988252190	973.547866776822	421.684810870882	300.392568289750	981.621459455092	291.122849672648	352.371159400031	909.330667162685	403.387975482197	586.149839830156	836.285358275873	300.688529277727	647.338182685379	876.269846746189	205.543950109255	582.361482331748	741.140386432285	41.949235359602	549.018709322717	911.431583137686	97.169043373718	589.067560276803	822.816254427118	36.214842985120	625.077229491815	1031.065436559622	45.266561535137	618.382060638183	804.560698497063	198.716538383687	392.446765166483	865.882847127094	164.037060416662	309.521360916053	969.279562243441	185.786648000762	329.116975235520	1061.063037121191	86.741049185869	295.277178609613	817.528513573616	1070.593509510498	228.303626013983	900.275672044995	823.043819269333	234.205523231653	977.097431665974	1095.496517860619	771.174769156376	1148.045691676012	901.532627941594	730.172810848888	
